<svg xmlns="http://www.w3.org/2000/svg" version="1.1" xmlns:xlink="http://www.w3.org/1999/xlink" width="512" height="512"><svg width="512" height="512" viewBox="0 0 512 512" fill="none" xmlns="http://www.w3.org/2000/svg">
<g clip-path="url(#clip0_149_77)">
<path d="M48.7 125.8L101.9 157.7C109.7 162.4 119.7 159.7 124.1 151.8L201.6 12.1C204.6 6.7 200.7 0 194.5 0C192.9 0 191.3 0.5 189.9 1.4L47.9 98.8C38.3 105.4 38.7 119.7 48.7 125.7V125.8ZM16 171.7V295.2C16 303.2 26.4 306.2 30.7 299.6L90.7 207.6C95.7 200 93.3 189.8 85.5 185.1L40.2 158C29.6 151.6 16 159.3 16 171.7ZM310.4 12.1L388 151.7C392.4 159.6 402.5 162.3 410.2 157.6L463.4 125.7C473.4 119.7 473.8 105.4 464.2 98.8L322.1 1.4C320.7 0.5 319.1 0 317.5 0C311.3 0 307.4 6.7 310.4 12.1ZM496 171.7C496 159.3 482.4 151.6 471.8 158L426.5 185.2C418.7 189.9 416.4 200.1 421.3 207.7L481.3 299.7C485.6 306.4 496 303.3 496 295.3V171.8V171.7ZM446.7 417.7L286.1 436.6C278 437.5 272 444.4 272 452.5V505.3C272 509 275 512.1 278.8 512.1C279.6 512.1 280.4 512 281.2 511.7L453.9 447.7C460 445.5 464 439.7 464 433.2C464 423.9 455.9 416.7 446.7 417.8V417.7ZM233.2 512C236.9 512 240 509 240 505.2V452.6C240 444.5 233.9 437.7 225.9 436.7L65.3 417.7C56.1 416.6 48 423.8 48 433.1C48 439.6 52 445.4 58.1 447.6L230.8 511.6C231.6 511.9 232.4 512 233.2 512ZM41.7 382.9L212.6 403.1C220.4 404 226 395.6 222.1 388.8L136.4 238.8C130.5 228.4 115.7 228 109.1 238L30.2 358.2C23.7 368.1 29.9 381.5 41.7 382.9ZM481.3 358.1L402.9 238.1C396.4 228.1 381.5 228.5 375.6 238.9L290.2 388.5C286.3 395.3 291.8 403.7 299.7 402.8L469.8 382.8C481.6 381.4 487.8 368.1 481.3 358.2V358.1ZM264.4 369.1L342.8 231.9C348.9 221.2 341.2 208 328.9 208H183.2C170.9 208 163.2 221.3 169.3 231.9L247.7 369.1C251.4 375.5 260.7 375.5 264.4 369.1ZM174.4 176H337.6C349.8 176 357.5 162.9 351.6 152.2L271.6 8.2C268.8 3.1 263.4 0 257.6 0H254.4C248.6 0 243.2 3.2 240.4 8.2L160.4 152.2C154.5 162.9 162.2 176 174.4 176Z" fill="#FB2C36"></path>
</g>
<defs>
<clipPath id="SvgjsClipPath1002">
<rect width="512" height="512" fill="white"></rect>
</clipPath>
</defs>
</svg><style>@media (prefers-color-scheme: light) { :root { filter: none; } }
@media (prefers-color-scheme: dark) { :root { filter: none; } }
</style></svg>